<svg version="1.1" xmlns="http://www.w3.org/2000/svg" xmlns:xlink="http://www.w3.org/1999/xlink" width="427.34001" height="159.17228" viewBox="0,0,427.34001,159.17228"><defs><linearGradient x1="160.90305" y1="231.29898" x2="160.90305" y2="259.58614" gradientUnits="userSpaceOnUse" id="color-1"><stop offset="0" stop-color="#5600a2"/><stop offset="1" stop-color="#6f16c4"/></linearGradient><linearGradient x1="274.48934" y1="231.73271" x2="274.48934" y2="259.08205" gradientUnits="userSpaceOnUse" id="color-2"><stop offset="0" stop-color="#5600a2"/><stop offset="1" stop-color="#6f16c4"/></linearGradient><linearGradient x1="109.98482" y1="231.73272" x2="109.98482" y2="259.08208" gradientUnits="userSpaceOnUse" id="color-3"><stop offset="0" stop-color="#5600a2"/><stop offset="1" stop-color="#6f16c4"/></linearGradient><linearGradient x1="376.54898" y1="231.73272" x2="376.54898" y2="259.08206" gradientUnits="userSpaceOnUse" id="color-4"><stop offset="0" stop-color="#400078"/><stop offset="1" stop-color="#340a5b"/></linearGradient><linearGradient x1="79.96487" y1="231.73272" x2="79.96487" y2="259.08206" gradientUnits="userSpaceOnUse" id="color-5"><stop offset="0" stop-color="#5600a2"/><stop offset="1" stop-color="#6f16c4"/></linearGradient><linearGradient x1="343.15011" y1="231.73272" x2="343.15011" y2="259.08206" gradientUnits="userSpaceOnUse" id="color-6"><stop offset="0" stop-color="#400078"/><stop offset="1" stop-color="#340a5b"/></linearGradient><linearGradient x1="218.91058" y1="231.73272" x2="218.91058" y2="259.08207" gradientUnits="userSpaceOnUse" id="color-7"><stop offset="0" stop-color="#5600a2"/><stop offset="1" stop-color="#6f16c4"/></linearGradient><linearGradient x1="408.49947" y1="231.73272" x2="408.49947" y2="259.08207" gradientUnits="userSpaceOnUse" id="color-8"><stop offset="0" stop-color="#400078"/><stop offset="1" stop-color="#340a5b"/></linearGradient><linearGradient x1="245.96886" y1="231.73272" x2="245.96886" y2="259.08207" gradientUnits="userSpaceOnUse" id="color-9"><stop offset="0" stop-color="#5600a2"/><stop offset="1" stop-color="#6f16c4"/></linearGradient><linearGradient x1="50.02278" y1="231.73272" x2="50.02278" y2="259.58614" gradientUnits="userSpaceOnUse" id="color-10"><stop offset="0" stop-color="#5600a2"/><stop offset="1" stop-color="#6f16c4"/></linearGradient><linearGradient x1="313.15483" y1="231.29894" x2="313.15483" y2="259.5861" gradientUnits="userSpaceOnUse" id="color-11"><stop offset="0" stop-color="#400078"/><stop offset="1" stop-color="#340a5b"/></linearGradient><linearGradient x1="433.62618" y1="231.1818" x2="433.62618" y2="259.46894" gradientUnits="userSpaceOnUse" id="color-12"><stop offset="0" stop-color="#400078"/><stop offset="1" stop-color="#340a5b"/></linearGradient><linearGradient x1="189.79052" y1="231.29896" x2="189.79052" y2="259.58613" gradientUnits="userSpaceOnUse" id="color-13"><stop offset="0" stop-color="#5600a2"/><stop offset="1" stop-color="#6f16c4"/></linearGradient><linearGradient x1="135.26917" y1="231.73272" x2="135.26917" y2="259.08206" gradientUnits="userSpaceOnUse" id="color-14"><stop offset="0" stop-color="#5600a2"/><stop offset="1" stop-color="#6f16c4"/></linearGradient><linearGradient x1="105.72025" y1="100.41386" x2="105.72025" y2="214.87191" gradientUnits="userSpaceOnUse" id="color-15"><stop offset="0" stop-color="#c65151"/><stop offset="1" stop-color="#c86868"/></linearGradient><linearGradient x1="253.86899" y1="100.41386" x2="253.86899" y2="216.98151" gradientUnits="userSpaceOnUse" id="color-16"><stop offset="0" stop-color="#52c763"/><stop offset="1" stop-color="#67c775"/></linearGradient><linearGradient x1="396.92149" y1="100.41386" x2="396.92149" y2="214.87192" gradientUnits="userSpaceOnUse" id="color-17"><stop offset="0" stop-color="#004dc1"/><stop offset="1" stop-color="#1d74c0"/></linearGradient><linearGradient x1="97.8765" y1="100.41386" x2="97.8765" y2="214.87191" gradientUnits="userSpaceOnUse" id="color-18"><stop offset="0" stop-color="#ff6868"/><stop offset="1" stop-color="#ff8585"/></linearGradient><linearGradient x1="246.02525" y1="100.41386" x2="246.02525" y2="216.98151" gradientUnits="userSpaceOnUse" id="color-19"><stop offset="0" stop-color="#69ff95"/><stop offset="1" stop-color="#85ffa8"/></linearGradient><linearGradient x1="389.07772" y1="100.41386" x2="389.07772" y2="214.87192" gradientUnits="userSpaceOnUse" id="color-20"><stop offset="0" stop-color="#0066ff"/><stop offset="1" stop-color="#279bff"/></linearGradient><linearGradient x1="144.59796" y1="245.44256" x2="174.1629" y2="245.44256" gradientUnits="userSpaceOnUse" id="color-21"><stop offset="0" stop-color="#b000f2"/><stop offset="1" stop-color="#8219e4"/></linearGradient><linearGradient x1="259.79614" y1="245.40738" x2="286.13731" y2="245.40738" gradientUnits="userSpaceOnUse" id="color-22"><stop offset="0" stop-color="#b000f2"/><stop offset="1" stop-color="#8219e4"/></linearGradient><linearGradient x1="96.44631" y1="245.4074" x2="120.47809" y2="245.4074" gradientUnits="userSpaceOnUse" id="color-23"><stop offset="0" stop-color="#b000f2"/><stop offset="1" stop-color="#8219e4"/></linearGradient><linearGradient x1="375.02637" y1="231.73272" x2="375.02637" y2="259.08206" gradientUnits="userSpaceOnUse" id="color-24"><stop offset="0" stop-color="#5600a2"/><stop offset="1" stop-color="#6f16c4"/></linearGradient><linearGradient x1="65.78162" y1="245.40739" x2="91.1029" y2="245.40739" gradientUnits="userSpaceOnUse" id="color-25"><stop offset="0" stop-color="#b000f2"/><stop offset="1" stop-color="#8219e4"/></linearGradient><linearGradient x1="341.6275" y1="231.73272" x2="341.6275" y2="259.08206" gradientUnits="userSpaceOnUse" id="color-26"><stop offset="0" stop-color="#5600a2"/><stop offset="1" stop-color="#6f16c4"/></linearGradient><linearGradient x1="204.24082" y1="245.4074" x2="230.5351" y2="245.4074" gradientUnits="userSpaceOnUse" id="color-27"><stop offset="0" stop-color="#b000f2"/><stop offset="1" stop-color="#8219e4"/></linearGradient><linearGradient x1="406.97685" y1="231.73272" x2="406.97685" y2="259.08207" gradientUnits="userSpaceOnUse" id="color-28"><stop offset="0" stop-color="#5600a2"/><stop offset="1" stop-color="#6f16c4"/></linearGradient><linearGradient x1="233.46196" y1="245.4074" x2="255.43052" y2="245.4074" gradientUnits="userSpaceOnUse" id="color-29"><stop offset="0" stop-color="#b000f2"/><stop offset="1" stop-color="#8219e4"/></linearGradient><linearGradient x1="36.09155" y1="245.65944" x2="60.90878" y2="245.65944" gradientUnits="userSpaceOnUse" id="color-30"><stop offset="0" stop-color="#b000f2"/><stop offset="1" stop-color="#8219e4"/></linearGradient><linearGradient x1="311.63221" y1="231.29894" x2="311.63221" y2="259.5861" gradientUnits="userSpaceOnUse" id="color-31"><stop offset="0" stop-color="#5600a2"/><stop offset="1" stop-color="#6f16c4"/></linearGradient><linearGradient x1="432.10357" y1="231.1818" x2="432.10357" y2="259.46894" gradientUnits="userSpaceOnUse" id="color-32"><stop offset="0" stop-color="#5600a2"/><stop offset="1" stop-color="#6f16c4"/></linearGradient><linearGradient x1="175.49672" y1="245.44255" x2="201.20484" y2="245.44255" gradientUnits="userSpaceOnUse" id="color-33"><stop offset="0" stop-color="#b000f2"/><stop offset="1" stop-color="#8219e4"/></linearGradient><linearGradient x1="124.38001" y1="245.40739" x2="143.11309" y2="245.40739" gradientUnits="userSpaceOnUse" id="color-34"><stop offset="0" stop-color="#b000f2"/><stop offset="1" stop-color="#8219e4"/></linearGradient></defs><g transform="translate(-26.32999,-100.41386)"><g data-paper-data="{&quot;isPaintingLayer&quot;:true}" fill-rule="nonzero" stroke="none" stroke-width="1" stroke-linecap="butt" stroke-linejoin="miter" stroke-miterlimit="10" stroke-dasharray="" stroke-dashoffset="0" style="mix-blend-mode: normal"><g><path d="M160.90305,231.29898c2.13355,0 4.09126,0.35169 5.87313,1.05505c1.78186,0.70337 3.34101,1.69199 4.67741,2.96588c1.3364,1.27388 2.37582,2.76267 3.11827,4.46639c0.74244,1.70372 1.11367,3.55983 1.11367,5.56834c0,2.02414 -0.37123,3.90369 -1.11367,5.63867c-0.74244,1.72716 -1.78186,3.2355 -3.11827,4.52501c-1.3364,1.2817 -2.89554,2.28204 -4.67741,3.00104c-1.78186,0.71118 -3.73958,1.06678 -5.87313,1.06678c-2.11011,0 -4.06391,-0.35559 -5.86141,-1.06678c-1.78968,-0.719 -3.35663,-1.71934 -4.70085,-3.00104c-1.3364,-1.28951 -2.37582,-2.79785 -3.11827,-4.52501c-0.73463,-1.73498 -1.10194,-3.61454 -1.10194,-5.63867c0,-2.00851 0.36731,-3.86853 1.10194,-5.58006c0.74244,-1.71934 1.78186,-3.20815 3.11827,-4.46639c1.34422,-1.26606 2.91116,-2.25078 4.70085,-2.95415c1.7975,-0.70337 3.7513,-1.05505 5.86141,-1.05505zM160.98511,237.27762c-1.01598,0 -1.98897,0.20319 -2.91898,0.60958c-0.92219,0.39857 -1.72716,0.96909 -2.4149,1.71153c-0.68774,0.74244 -1.22698,1.60212 -1.61775,2.57902c-0.39076,0.96909 -0.58614,2.03977 -0.58614,3.21205c0,1.14102 0.19538,2.21561 0.58614,3.22377c0.39076,1.00035 0.93783,1.87174 1.64119,2.61419c0.70337,0.73463 1.50833,1.31296 2.4149,1.73498c0.91439,0.41421 1.87956,0.6213 2.89554,0.6213c1.00816,0 1.96162,-0.2071 2.86037,-0.6213c0.89875,-0.42202 1.68418,-1.00035 2.35628,-1.73498c0.67992,-0.74244 1.20746,-1.61384 1.58258,-2.61419c0.38295,-1.00816 0.57442,-2.08275 0.57442,-3.22377c0,-1.17228 -0.19147,-2.24297 -0.57442,-3.21205c-0.37513,-0.97691 -0.90265,-1.83658 -1.58258,-2.57902c-0.67211,-0.74244 -1.45753,-1.31296 -2.35628,-1.71153c-0.89875,-0.40639 -1.8522,-0.60958 -2.86037,-0.60958z" fill="url(#color-1)"/><path d="M273.10018,231.73272c2.16481,0 4.13816,0.33215 5.92002,0.99644c1.78186,0.6643 3.31365,1.60212 4.59535,2.81347c1.28951,1.20354 2.28595,2.63763 2.98932,4.30228c0.70337,1.66464 1.05505,3.51294 1.05505,5.5449c0,2.0554 -0.3595,3.91543 -1.0785,5.58006c-0.71118,1.66464 -1.71934,3.11046 -3.02448,4.33744c-1.29732,1.21918 -2.85646,2.15309 -4.67741,2.80175c-1.82094,0.64866 -3.83727,0.97299 -6.04898,0.97299h-11.5118v-27.34934zM273.29945,253.38477c1.03942,0 1.98897,-0.18757 2.84865,-0.5627c0.85967,-0.37513 1.60603,-0.91439 2.23906,-1.61775c0.64084,-0.70337 1.1293,-1.54351 1.46535,-2.5204c0.33605,-0.97691 0.50408,-2.04759 0.50408,-3.21205c0,-1.20354 -0.18366,-2.28986 -0.55098,-3.25895c-0.3595,-0.97691 -0.87139,-1.82094 -1.53569,-2.53213c-0.6643,-0.719 -1.44581,-1.26606 -2.34456,-1.64119c-0.89093,-0.38295 -1.88346,-0.57442 -2.9776,-0.57442h-4.48983v15.91959z" fill="url(#color-2)"/><path d="M110.96952,231.73272c2.07885,0 3.87243,0.28917 5.38078,0.86749c1.50833,0.5705 2.67671,1.36375 3.50512,2.37974c0.83623,1.00816 1.25434,2.22733 1.25434,3.65752c0,1.43019 -0.42593,2.68061 -1.27778,3.7513c-0.84405,1.06287 -1.98116,1.78968 -3.41134,2.18045c1.71934,0.33605 3.0792,1.1293 4.07954,2.37974c1.00035,1.25044 1.50053,2.75877 1.50053,4.52501c0,1.56305 -0.42984,2.91898 -1.28951,4.06782c-0.85185,1.14102 -2.06713,2.01633 -3.6458,2.62591c-1.57085,0.60958 -3.43479,0.91439 -5.59178,0.91439h-13.50469v-27.34934zM110.57095,253.61923c1.25044,0 2.23906,-0.26571 2.96588,-0.79715c0.72682,-0.53144 1.09022,-1.26606 1.09022,-2.20389c0,-0.88311 -0.36341,-1.58258 -1.09022,-2.09839c-0.72682,-0.52362 -1.71544,-0.77371 -2.96588,-0.75026h-5.46284v5.84969zM110.57095,242.62322c0.99253,0 1.77406,-0.24227 2.34456,-0.72682c0.5705,-0.48454 0.85577,-1.15274 0.85577,-2.0046c0,-0.85967 -0.28525,-1.52397 -0.85577,-1.99288c-0.5705,-0.46891 -1.35203,-0.69164 -2.34456,-0.6682h-5.46284v5.3925z" fill="url(#color-3)"/><path d="M360.88144,231.73272h7.77223l7.9129,16.11887l7.87774,-16.11887h7.77223v27.34934h-6.31859l-0.0469,-17.5139l-6.97507,14.78247h-4.60707l-7.02197,-14.78247v17.5139h-6.36549z" fill="url(#color-4)"/><path d="M67.30423,231.73272h6.28343l12.44963,16.63009v-16.63009h6.58822v27.34934h-6.23654l-12.41447,-16.49844v16.49844h-6.67028z" fill="url(#color-5)"/><path d="M339.62155,231.73272h7.33848l11.46492,27.34934h-7.60811l-1.87757,-4.91186h-11.81091l-1.9146,4.91186h-7.33848zM343.09151,238.87192l-3.86119,9.90578h7.64767z" fill="url(#color-6)"/><path d="M205.76345,231.73272h7.1392v12.01589l10.26918,-12.01589h8.26459l-10.17195,11.26571l10.79326,16.08364h-8.53422l-7.15541,-10.66078l-3.46546,3.8381v6.82268h-7.1392z" fill="url(#color-7)"/><path d="M397.51519,231.73272h21.58171v5.61523h-14.44252v5.22838h13.03577v5.58006h-13.03577v5.31044h14.82937v5.61523h-21.96856z" fill="url(#color-8)"/><path d="M234.98458,231.73272h21.58171v5.61523h-14.44252v5.22838h13.03577v5.58006h-13.03577v5.31044h14.82937v5.61523h-21.96856z" fill="url(#color-9)"/><path d="M44.75337,247.80471c0,1.77406 0.5119,3.18079 1.53569,4.22022c1.03161,1.03942 2.31721,1.55913 3.85681,1.55913c1.53179,0 2.77049,-0.5119 3.71614,-1.53569c0.95345,-1.03161 1.43019,-2.44616 1.43019,-4.24366v-16.07199h7.1392v16.07199c0,2.39146 -0.50018,4.47421 -1.50053,6.24826c-1.00035,1.76624 -2.42662,3.12999 -4.27883,4.09126c-1.8444,0.96127 -4.02874,1.44191 -6.55306,1.44191c-2.5165,0 -4.71257,-0.48064 -6.58822,-1.44191c-1.87566,-0.96127 -3.32929,-2.32502 -4.36089,-4.09126c-1.02379,-1.77406 -1.53569,-3.85681 -1.53569,-6.24826v-16.07199h7.1392z" fill="url(#color-10)"/><path d="M322.26349,240.31383c-0.45266,-0.45266 -2.62748,-0.05469 -2.62748,-0.05469c0,0 -0.06641,-1.90319 -0.74869,-2.18437c-1.28951,-0.53144 -2.5712,-0.79715 -3.84509,-0.79715c-1.11758,0 -2.14527,0.2071 -3.0831,0.6213c-0.93783,0.41421 -1.75842,0.98863 -2.4618,1.72326c-0.69556,0.72682 -1.2348,1.58258 -1.61775,2.5673c-0.37513,0.98471 -0.5627,2.05149 -0.5627,3.20033c0,1.17228 0.19538,2.25469 0.58614,3.24722c0.39076,0.98471 0.93783,1.8483 1.64119,2.59074c0.70337,0.73463 1.52787,1.31296 2.47352,1.73498c0.95345,0.41421 1.98897,0.6213 3.10654,0.6213c0.98471,0 2.10619,-0.23837 3.36445,-0.71509c0.46464,-0.17782 0.91401,-0.37565 1.34812,-0.59347v-7.12015h6.1662v10.8436c-0.96127,0.67992 -2.08667,1.29342 -3.37617,1.84048c-1.2817,0.53925 -2.61809,0.96518 -4.00921,1.27778c-1.39111,0.31261 -2.72361,0.46891 -3.99749,0.46891c-2.08667,0 -4.02093,-0.35559 -5.80279,-1.06678c-1.78186,-0.719 -3.33709,-1.71544 -4.66568,-2.98932c-1.32077,-1.27388 -2.34456,-2.78221 -3.07138,-4.52501c-0.72682,-1.7428 -1.09022,-3.61454 -1.09022,-5.61523c0,-2.00069 0.37513,-3.86071 1.12539,-5.58006c0.75808,-1.71934 1.81704,-3.21596 3.17688,-4.48983c1.36766,-1.27388 2.96588,-2.2625 4.79464,-2.96588c1.83658,-0.70337 3.83336,-1.05505 5.99036,-1.05505c1.35985,0 2.71969,0.17193 4.07954,0.5158c1.36766,0.33605 2.66889,0.80497 3.90369,1.40674c1.2348,0.59396 2.32112,1.32077 3.25895,2.18045z" fill="url(#color-11)"/><path d="M442.69965,239.89181c-0.37716,-0.23611 -2.65219,-0.08846 -2.65219,-0.08846c0,0 0.24091,-1.19776 -0.41919,-1.45895c-1.0785,-0.42984 -2.11793,-0.76589 -3.11827,-1.00816c-1.00035,-0.25009 -1.87566,-0.37513 -2.62591,-0.37513c-0.85967,0 -1.55133,0.16412 -2.07493,0.49236c-0.5158,0.32043 -0.77371,0.82059 -0.77371,1.50053c0,0.67211 0.25009,1.22308 0.75026,1.65292c0.50799,0.42984 1.19182,0.78933 2.05149,1.0785c0.85967,0.28135 1.80922,0.5666 2.84865,0.85577c1.03942,0.28917 2.06713,0.62912 3.0831,1.01989c1.01598,0.38295 1.9538,0.88311 2.81347,1.50053c0.85967,0.60958 1.54741,1.39501 2.06321,2.35628c0.52362,0.96127 0.78543,2.15699 0.78543,3.58718c0,1.8444 -0.49626,3.39961 -1.48879,4.66568c-0.98471,1.25825 -2.3094,2.2078 -3.97403,2.84865c-1.66464,0.63304 -3.51294,0.94955 -5.5449,0.94955c-1.53179,0 -3.05966,-0.17584 -4.58363,-0.52752c-1.52397,-0.35169 -2.96978,-0.85577 -4.33744,-1.51225c-1.35985,-0.6643 -2.58683,-1.45363 -3.68096,-2.368l-0.01319,-5.4814l2.7915,-0.0166c0.93001,0.82841 1.98116,1.55523 3.15344,2.18045c1.17228,0.62522 2.35628,1.11367 3.55202,1.46535c1.19572,0.35169 2.2625,0.52752 3.20033,0.52752c1.06287,0 1.8991,-0.19929 2.50868,-0.59786c0.6174,-0.40639 0.92611,-1.00035 0.92611,-1.78186c0,-0.67211 -0.26181,-1.22308 -0.78543,-1.65292c-0.5158,-0.42984 -1.20354,-0.78933 -2.06321,-1.0785c-0.85967,-0.28917 -1.80532,-0.5666 -2.83692,-0.83232c-1.02379,-0.27353 -2.05149,-0.59786 -3.0831,-0.97299c-1.02379,-0.38295 -1.96553,-0.86749 -2.8252,-1.45363c-0.85967,-0.58614 -1.54351,-1.34422 -2.05149,-2.27423c-0.50018,-0.93783 -0.75026,-2.11011 -0.75026,-3.51684c0,-1.68808 0.44547,-3.16125 1.3364,-4.4195c0.89875,-1.26606 2.17263,-2.24297 3.82164,-2.9307c1.65683,-0.69556 3.57936,-1.04333 5.76763,-1.04333c2.00069,0 3.96231,0.28917 5.88485,0.86749c1.92254,0.5705 3.5989,1.30905 5.02909,2.21561z" fill="url(#color-12)"/><path d="M198.47126,240.89997c-0.22312,-0.27988 -2.5236,-0.04961 -2.5236,-0.04961c0,0 0.27231,-2.11353 -0.64153,-2.59974c-1.21918,-0.64866 -2.42662,-0.97299 -3.62236,-0.97299c-1.04724,0 -2.02805,0.20319 -2.94242,0.60958c-0.90657,0.39857 -1.69981,0.95737 -2.37974,1.67636c-0.67211,0.71118 -1.19182,1.55523 -1.55913,2.53213c-0.3595,0.96909 -0.53925,2.02805 -0.53925,3.17688c0,1.14102 0.17975,2.19999 0.53925,3.17688c0.36731,0.97691 0.88703,1.82876 1.55913,2.55558c0.67992,0.72682 1.47317,1.29342 2.37974,1.69981c0.91439,0.39857 1.89519,0.59786 2.94242,0.59786c1.14102,0 2.3133,-0.28917 3.51684,-0.86749c0.89365,-0.43242 0.57692,-2.37492 0.57692,-2.37492c0,0 2.43956,0.26723 2.69372,0.00692l4.17332,4.40778c-0.99253,1.03942 -2.11401,1.94599 -3.36445,2.71969c-1.24262,0.76589 -2.54776,1.35594 -3.9154,1.77014c-1.36766,0.41421 -2.72751,0.6213 -4.07954,0.6213c-2.0554,0 -3.95449,-0.35559 -5.69729,-1.06678c-1.7428,-0.719 -3.25895,-1.71934 -4.54845,-3.00104c-1.2817,-1.28951 -2.28595,-2.79785 -3.01276,-4.52501c-0.72682,-1.73498 -1.09022,-3.61454 -1.09022,-5.63867c0,-2.00851 0.36341,-3.86463 1.09022,-5.56834c0.72682,-1.70372 1.7506,-3.19251 3.07138,-4.46639c1.32859,-1.27388 2.88381,-2.2625 4.66568,-2.96588c1.78186,-0.70337 3.71614,-1.05505 5.80279,-1.05505c1.35203,0 2.70407,0.19147 4.05609,0.57442c1.35202,0.37513 2.62589,0.91439 3.82161,1.61775c1.19572,0.70337 2.24687,1.53569 3.15344,2.49696z" fill="url(#color-13)"/><path d="M133.04182,231.73272v21.33553h11.59388v6.0138h-18.73309v-27.34934z" fill="url(#color-14)"/></g><path d="M89.19262,100.41386h34.37307l53.70105,114.45805h-35.63598l-8.7944,-20.55633h-55.32166l-8.96789,20.55633h-34.37307zM105.4457,130.29168l-18.08559,41.45609h35.82132z" fill="url(#color-15)"/><path d="M229.18735,167.67575c0,7.42449 2.3977,13.31173 7.19308,17.66176c4.832,4.35003 10.85369,6.52504 18.06509,6.52504c7.17479,0 12.97683,-2.14231 17.40617,-6.42692c4.46593,-4.31732 6.6989,-10.23728 6.6989,-17.75988v-67.26189h33.43967v67.26189c0,10.00833 -2.34278,18.72475 -7.02836,26.14922c-4.6856,7.39178 -11.36623,13.09914 -20.04185,17.1221c-8.63902,4.02296 -18.87042,6.03443 -30.69416,6.03443c-11.78715,0 -22.07344,-2.01148 -30.85888,-6.03443c-8.78544,-4.02296 -15.59417,-9.73033 -20.42617,-17.1221c-4.79539,-7.42449 -7.19308,-16.14089 -7.19308,-26.14922v-67.26189h33.43961z" data-paper-data="{&quot;index&quot;:null}" fill="url(#color-16)"/><path d="M451.3089,214.87192h-110.03775v-19.28077l67.64796,-71.48109h-68.74613v-23.69621h113.49702v19.08452l-67.59304,71.67733h65.23197z" data-paper-data="{&quot;index&quot;:null}" fill="url(#color-17)"/><path d="M81.34887,100.41386h34.37307l53.70105,114.45805h-35.63598l-8.7944,-20.55633h-55.32166l-8.96789,20.55633h-34.37307zM97.60194,130.29168l-18.08559,41.45609h35.82132z" fill="url(#color-18)"/><path d="M221.34359,167.67575c0,7.42449 2.3977,13.31173 7.19308,17.66176c4.832,4.35003 10.85369,6.52504 18.06509,6.52504c7.17479,0 12.97683,-2.14231 17.40617,-6.42692c4.46593,-4.31732 6.6989,-10.23728 6.6989,-17.75988v-67.26189h33.43967v67.26189c0,10.00833 -2.34278,18.72475 -7.02836,26.14922c-4.6856,7.39178 -11.36623,13.09914 -20.04185,17.1221c-8.63902,4.02296 -18.87042,6.03443 -30.69416,6.03443c-11.78715,0 -22.07344,-2.01148 -30.85888,-6.03443c-8.78544,-4.02296 -15.59417,-9.73033 -20.42617,-17.1221c-4.79539,-7.42449 -7.19308,-16.14089 -7.19308,-26.14922v-67.26189h33.43961z" data-paper-data="{&quot;index&quot;:null}" fill="url(#color-19)"/><path d="M443.46514,214.87192h-110.03775v-19.28077l67.64796,-71.48109h-68.74613v-23.69621h113.49702v19.08452l-67.59304,71.67733h65.23197z" data-paper-data="{&quot;index&quot;:null}" fill="url(#color-20)"/><path d="M159.38043,231.29898c2.13355,0 4.09126,0.35169 5.87313,1.05505c1.78186,0.70337 3.34101,1.69199 4.67741,2.96588c1.3364,1.27388 2.37582,2.76267 3.11827,4.46639c0.74244,1.70372 1.11367,3.55983 1.11367,5.56834c0,2.02414 -0.37123,3.90369 -1.11367,5.63867c-0.74244,1.72716 -1.78186,3.2355 -3.11827,4.52501c-1.3364,1.2817 -2.89554,2.28204 -4.67741,3.00104c-1.78186,0.71118 -3.73958,1.06678 -5.87313,1.06678c-2.11011,0 -4.06391,-0.35559 -5.86141,-1.06678c-1.78968,-0.719 -3.35663,-1.71934 -4.70085,-3.00104c-1.3364,-1.28951 -2.37582,-2.79785 -3.11827,-4.52501c-0.73463,-1.73498 -1.10194,-3.61454 -1.10194,-5.63867c0,-2.00851 0.36731,-3.86853 1.10194,-5.58006c0.74244,-1.71934 1.78186,-3.20815 3.11827,-4.46639c1.34422,-1.26606 2.91116,-2.25078 4.70085,-2.95415c1.7975,-0.70337 3.7513,-1.05505 5.86141,-1.05505zM159.46249,237.27762c-1.01598,0 -1.98897,0.20319 -2.91898,0.60958c-0.92219,0.39857 -1.72716,0.96909 -2.4149,1.71153c-0.68774,0.74244 -1.22698,1.60212 -1.61775,2.57902c-0.39076,0.96909 -0.58614,2.03977 -0.58614,3.21205c0,1.14102 0.19538,2.21561 0.58614,3.22377c0.39076,1.00035 0.93783,1.87174 1.64119,2.61419c0.70337,0.73463 1.50833,1.31296 2.4149,1.73498c0.91439,0.41421 1.87956,0.6213 2.89554,0.6213c1.00816,0 1.96162,-0.2071 2.86037,-0.6213c0.89875,-0.42202 1.68418,-1.00035 2.35628,-1.73498c0.67992,-0.74244 1.20746,-1.61384 1.58258,-2.61419c0.38295,-1.00816 0.57442,-2.08275 0.57442,-3.22377c0,-1.17228 -0.19147,-2.24297 -0.57442,-3.21205c-0.37513,-0.97691 -0.90265,-1.83658 -1.58258,-2.57902c-0.67211,-0.74244 -1.45753,-1.31296 -2.35628,-1.71153c-0.89875,-0.40639 -1.8522,-0.60958 -2.86037,-0.60958z" fill="url(#color-21)"/><path d="M271.57757,231.73272c2.16481,0 4.13816,0.33215 5.92002,0.99644c1.78186,0.6643 3.31365,1.60212 4.59535,2.81347c1.28951,1.20354 2.28595,2.63763 2.98932,4.30228c0.70337,1.66464 1.05505,3.51294 1.05505,5.5449c0,2.0554 -0.3595,3.91543 -1.0785,5.58006c-0.71118,1.66464 -1.71934,3.11046 -3.02448,4.33744c-1.29732,1.21918 -2.85646,2.15309 -4.67741,2.80175c-1.82094,0.64866 -3.83727,0.97299 -6.04898,0.97299h-11.5118v-27.34934zM271.77683,253.38477c1.03942,0 1.98897,-0.18757 2.84865,-0.5627c0.85967,-0.37513 1.60603,-0.91439 2.23906,-1.61775c0.64084,-0.70337 1.1293,-1.54351 1.46535,-2.5204c0.33605,-0.97691 0.50408,-2.04759 0.50408,-3.21205c0,-1.20354 -0.18366,-2.28986 -0.55098,-3.25895c-0.3595,-0.97691 -0.87139,-1.82094 -1.53569,-2.53213c-0.6643,-0.719 -1.44581,-1.26606 -2.34456,-1.64119c-0.89093,-0.38295 -1.88346,-0.57442 -2.9776,-0.57442h-4.48983v15.91959z" fill="url(#color-22)"/><path d="M109.44691,231.73272c2.07885,0 3.87243,0.28917 5.38078,0.86749c1.50833,0.5705 2.67671,1.36375 3.50512,2.37974c0.83623,1.00816 1.25434,2.22733 1.25434,3.65752c0,1.43019 -0.42593,2.68061 -1.27778,3.7513c-0.84405,1.06287 -1.98116,1.78968 -3.41134,2.18045c1.71934,0.33605 3.0792,1.1293 4.07954,2.37974c1.00035,1.25044 1.50053,2.75877 1.50053,4.52501c0,1.56305 -0.42984,2.91898 -1.28951,4.06782c-0.85185,1.14102 -2.06713,2.01633 -3.6458,2.62591c-1.57085,0.60958 -3.43479,0.91439 -5.59178,0.91439h-13.50469v-27.34934zM109.04834,253.61923c1.25044,0 2.23906,-0.26571 2.96588,-0.79715c0.72682,-0.53144 1.09022,-1.26606 1.09022,-2.20389c0,-0.88311 -0.36341,-1.58258 -1.09022,-2.09839c-0.72682,-0.52362 -1.71544,-0.77371 -2.96588,-0.75026h-5.46284v5.84969zM109.04834,242.62322c0.99253,0 1.77406,-0.24227 2.34456,-0.72682c0.5705,-0.48454 0.85577,-1.15274 0.85577,-2.0046c0,-0.85967 -0.28525,-1.52397 -0.85577,-1.99288c-0.5705,-0.46891 -1.35203,-0.69164 -2.34456,-0.6682h-5.46284v5.3925z" fill="url(#color-23)"/><path d="M359.35882,231.73272h7.77223l7.9129,16.11887l7.87774,-16.11887h7.77223v27.34934h-6.31859l-0.0469,-17.5139l-6.97507,14.78247h-4.60707l-7.02197,-14.78247v17.5139h-6.36549z" fill="url(#color-24)"/><path d="M65.78162,231.73272h6.28343l12.44963,16.63009v-16.63009h6.58822v27.34934h-6.23654l-12.41447,-16.49844v16.49844h-6.67028z" fill="url(#color-25)"/><path d="M338.09893,231.73272h7.33848l11.46492,27.34934h-7.60811l-1.87757,-4.91186h-11.81091l-1.9146,4.91186h-7.33848zM341.56889,238.87192l-3.86119,9.90578h7.64767z" fill="url(#color-26)"/><path d="M204.24083,231.73272h7.1392v12.01589l10.26918,-12.01589h8.26459l-10.17195,11.26571l10.79326,16.08364h-8.53422l-7.15541,-10.66078l-3.46546,3.8381v6.82268h-7.1392z" fill="url(#color-27)"/><path d="M395.99257,231.73272h21.58171v5.61523h-14.44252v5.22838h13.03577v5.58006h-13.03577v5.31044h14.82937v5.61523h-21.96856z" fill="url(#color-28)"/><path d="M233.46196,231.73272h21.58171v5.61523h-14.44252v5.22838h13.03577v5.58006h-13.03577v5.31044h14.82937v5.61523h-21.96856z" fill="url(#color-29)"/><path d="M43.23075,247.80471c0,1.77406 0.5119,3.18079 1.53569,4.22022c1.03161,1.03942 2.31721,1.55913 3.85681,1.55913c1.53179,0 2.77049,-0.5119 3.71614,-1.53569c0.95345,-1.03161 1.43019,-2.44616 1.43019,-4.24366v-16.07199h7.1392v16.07199c0,2.39146 -0.50018,4.47421 -1.50053,6.24826c-1.00035,1.76624 -2.42662,3.12999 -4.27883,4.09126c-1.8444,0.96127 -4.02874,1.44191 -6.55306,1.44191c-2.5165,0 -4.71257,-0.48064 -6.58822,-1.44191c-1.87566,-0.96127 -3.32929,-2.32502 -4.36089,-4.09126c-1.02379,-1.77406 -1.53569,-3.85681 -1.53569,-6.24826v-16.07199h7.1392z" fill="url(#color-30)"/><path d="M320.74087,240.31383c-0.96127,-0.96127 -2.08667,-1.70762 -3.37617,-2.23906c-1.28951,-0.53144 -2.5712,-0.79715 -3.84509,-0.79715c-1.11758,0 -2.14527,0.2071 -3.0831,0.6213c-0.93783,0.41421 -1.75842,0.98863 -2.4618,1.72326c-0.69556,0.72682 -1.2348,1.58258 -1.61775,2.5673c-0.37513,0.98471 -0.5627,2.05149 -0.5627,3.20033c0,1.17228 0.19538,2.25469 0.58614,3.24722c0.39076,0.98471 0.93783,1.8483 1.64119,2.59074c0.70337,0.73463 1.52787,1.31296 2.47352,1.73498c0.95345,0.41421 1.98897,0.6213 3.10654,0.6213c0.98471,0 2.10619,-0.23837 3.36445,-0.71509c0.46464,-0.17782 0.91401,-0.37565 1.34812,-0.59347v-7.12015h6.1662v10.8436c-0.96127,0.67992 -2.08667,1.29342 -3.37617,1.84048c-1.2817,0.53925 -2.61809,0.96518 -4.00921,1.27778c-1.39111,0.31261 -2.72361,0.46891 -3.99749,0.46891c-2.08667,0 -4.02093,-0.35559 -5.80279,-1.06678c-1.78186,-0.719 -3.33709,-1.71544 -4.66568,-2.98932c-1.32077,-1.27388 -2.34456,-2.78221 -3.07138,-4.52501c-0.72682,-1.7428 -1.09022,-3.61454 -1.09022,-5.61523c0,-2.00069 0.37513,-3.86071 1.12539,-5.58006c0.75808,-1.71934 1.81704,-3.21596 3.17688,-4.48983c1.36766,-1.27388 2.96588,-2.2625 4.79464,-2.96588c1.83658,-0.70337 3.83336,-1.05505 5.99036,-1.05505c1.35985,0 2.71969,0.17193 4.07954,0.5158c1.36766,0.33605 2.66889,0.80497 3.90369,1.40674c1.2348,0.59396 2.32112,1.32077 3.25895,2.18045z" fill="url(#color-31)"/><path d="M441.17704,239.89181c-0.96127,-0.60178 -1.98506,-1.11758 -3.07138,-1.54741c-1.0785,-0.42984 -2.11793,-0.76589 -3.11827,-1.00816c-1.00035,-0.25009 -1.87566,-0.37513 -2.62591,-0.37513c-0.85967,0 -1.55133,0.16412 -2.07493,0.49236c-0.5158,0.32043 -0.77371,0.82059 -0.77371,1.50053c0,0.67211 0.25009,1.22308 0.75026,1.65292c0.50799,0.42984 1.19182,0.78933 2.05149,1.0785c0.85967,0.28135 1.80922,0.5666 2.84865,0.85577c1.03942,0.28917 2.06713,0.62912 3.0831,1.01989c1.01598,0.38295 1.9538,0.88311 2.81347,1.50053c0.85967,0.60958 1.54741,1.39501 2.06321,2.35628c0.52362,0.96127 0.78543,2.15699 0.78543,3.58718c0,1.8444 -0.49626,3.39961 -1.48879,4.66568c-0.98471,1.25825 -2.3094,2.2078 -3.97403,2.84865c-1.66464,0.63304 -3.51294,0.94955 -5.5449,0.94955c-1.53179,0 -3.05966,-0.17584 -4.58363,-0.52752c-1.52397,-0.35169 -2.96978,-0.85577 -4.33744,-1.51225c-1.35985,-0.6643 -2.58683,-1.45363 -3.68096,-2.368l2.77831,-5.498c0.93001,0.82841 1.98116,1.55523 3.15344,2.18045c1.17228,0.62522 2.35628,1.11367 3.55202,1.46535c1.19572,0.35169 2.2625,0.52752 3.20033,0.52752c1.06287,0 1.8991,-0.19929 2.50868,-0.59786c0.6174,-0.40639 0.92611,-1.00035 0.92611,-1.78186c0,-0.67211 -0.26181,-1.22308 -0.78543,-1.65292c-0.5158,-0.42984 -1.20354,-0.78933 -2.06321,-1.0785c-0.85967,-0.28917 -1.80532,-0.5666 -2.83692,-0.83232c-1.02379,-0.27353 -2.05149,-0.59786 -3.0831,-0.97299c-1.02379,-0.38295 -1.96553,-0.86749 -2.8252,-1.45363c-0.85967,-0.58614 -1.54351,-1.34422 -2.05149,-2.27423c-0.50018,-0.93783 -0.75026,-2.11011 -0.75026,-3.51684c0,-1.68808 0.44547,-3.16125 1.3364,-4.4195c0.89875,-1.26606 2.17263,-2.24297 3.82164,-2.9307c1.65683,-0.69556 3.57936,-1.04333 5.76763,-1.04333c2.00069,0 3.96231,0.28917 5.88485,0.86749c1.92254,0.5705 3.5989,1.30905 5.02909,2.21561z" fill="url(#color-32)"/><path d="M197.03152,240.89997c-0.89093,-1.11758 -1.94598,-2.00069 -3.16513,-2.64935c-1.21918,-0.64866 -2.42662,-0.97299 -3.62236,-0.97299c-1.04724,0 -2.02805,0.20319 -2.94242,0.60958c-0.90657,0.39857 -1.69981,0.95737 -2.37974,1.67636c-0.67211,0.71118 -1.19182,1.55523 -1.55913,2.53213c-0.3595,0.96909 -0.53925,2.02805 -0.53925,3.17688c0,1.14102 0.17975,2.19999 0.53925,3.17688c0.36731,0.97691 0.88703,1.82876 1.55913,2.55558c0.67992,0.72682 1.47317,1.29342 2.37974,1.69981c0.91439,0.39857 1.89519,0.59786 2.94242,0.59786c1.14102,0 2.3133,-0.28917 3.51684,-0.86749c1.21135,-0.58614 2.30156,-1.37548 3.27065,-2.368l4.17332,4.40778c-0.99253,1.03942 -2.11401,1.94599 -3.36445,2.71969c-1.24262,0.76589 -2.54776,1.35594 -3.9154,1.77014c-1.36766,0.41421 -2.72751,0.6213 -4.07954,0.6213c-2.0554,0 -3.95449,-0.35559 -5.69729,-1.06678c-1.7428,-0.719 -3.25895,-1.71934 -4.54845,-3.00104c-1.2817,-1.28951 -2.28595,-2.79785 -3.01276,-4.52501c-0.72682,-1.73498 -1.09022,-3.61454 -1.09022,-5.63867c0,-2.00851 0.36341,-3.86463 1.09022,-5.56834c0.72682,-1.70372 1.7506,-3.19251 3.07138,-4.46639c1.32859,-1.27388 2.88381,-2.2625 4.66568,-2.96588c1.78186,-0.70337 3.71614,-1.05505 5.80279,-1.05505c1.35203,0 2.70407,0.19147 4.05609,0.57442c1.35202,0.37513 2.62589,0.91439 3.82161,1.61775c1.19572,0.70337 2.24687,1.53569 3.15344,2.49696z" fill="url(#color-33)"/><path d="M131.51921,231.73272v21.33553h11.59388v6.0138h-18.73309v-27.34934z" fill="url(#color-34)"/></g></g></svg>